<?xml version="1.0" encoding="utf-8"?>
<!-- Generator: Adobe Illustrator 21.0.2, SVG Export Plug-In . SVG Version: 6.00 Build 0)  -->
<svg version="1.1" id="Layer_1" xmlns="http://www.w3.org/2000/svg" xmlns:xlink="http://www.w3.org/1999/xlink" x="0px" y="0px"
	 viewBox="0 0 32 68" style="enable-background:new 0 0 32 68;" xml:space="preserve">
<style type="text/css">
	.st0{fill:#0066CC;}
	.st1{fill:#FFFFFF;}
	.st2{fill:#FFCC00;}
</style>
<rect class="st0" width="32" height="68"/>
<g>
	<path class="st1" d="M5.1,43h6.8v2.1H7.6v2.5h4v2h-4V54H5.1V43z"/>
	<path class="st1" d="M16.2,43v11.1h-2.5V43H16.2z"/>
	<path class="st1" d="M18.5,54.1V43h2.9l2.3,4.1c0.7,1.2,1.3,2.5,1.8,3.8l0,0c-0.2-1.5-0.2-3-0.2-4.6V43h2.3v11.1h-2.6l-2.4-4.3
		c-0.7-1.2-1.4-2.6-1.9-3.9l0,0c0.1,1.5,0.1,3,0.1,4.8V54L18.5,54.1L18.5,54.1z"/>
</g>
<g>
	<polygon class="st2" points="16.1,11.6 16.6,12.7 18,12.8 17,13.7 17.2,14.9 16.1,14.3 15,14.9 15.2,13.7 14.4,12.8 15.5,12.7 	"/>
	<polygon class="st2" points="21.5,12.9 22.1,14 23.4,14.2 22.5,15.1 22.6,16.3 21.5,15.7 20.5,16.3 20.8,15.1 19.9,14.2 21,14 	"/>
	<polygon class="st2" points="25.5,16.7 26,17.8 27.2,18 26.4,18.9 26.6,20.1 25.5,19.5 24.5,20.1 24.6,18.9 23.8,18 25,17.8 	"/>
	<polygon class="st2" points="16.1,32.1 16.6,33.2 18,33.4 17,34.3 17.2,35.5 16.1,34.9 15,35.5 15.2,34.3 14.4,33.4 15.5,33.2 	"/>
	<polygon class="st2" points="21.5,30.7 22.1,31.8 23.4,32 22.5,32.9 22.6,34.1 21.5,33.5 20.5,34.1 20.8,32.9 19.9,32 21,31.8 	"/>
	<polygon class="st2" points="11.2,12.9 11.8,14 13,14.2 12,15.1 12.2,16.3 11.2,15.7 10.1,16.3 10.4,15.1 9.4,14.2 10.6,14 	"/>
	<polygon class="st2" points="7.4,16.7 7.9,17.8 9.1,18 8.2,18.9 8.4,20.1 7.4,19.5 6.2,20.1 6.4,18.9 5.6,18 6.8,17.8 	"/>
	<polygon class="st2" points="25.5,26.9 26,28 27.2,28.2 26.4,29.1 26.6,30.3 25.5,29.7 24.5,30.3 24.6,29.1 23.8,28.2 25,28 	"/>
	<polygon class="st2" points="7.4,26.9 7.9,28 9.1,28.2 8.2,29.1 8.4,30.3 7.4,29.7 6.2,30.3 6.4,29.1 5.6,28.2 6.8,28 	"/>
	<polygon class="st2" points="6.1,21.8 6.6,22.9 7.8,23.1 6.9,24 7.1,25.2 6.1,24.6 4.9,25.2 5.1,24 4.2,23.1 5.4,22.9 	"/>
	<polygon class="st2" points="27,21.8 27.5,22.9 28.7,23.1 27.8,24 28,25.2 27,24.6 25.9,25.2 26,24 25.1,23.1 26.4,22.9 	"/>
	<polygon class="st2" points="11.2,30.7 11.8,31.8 13,32 12,32.9 12.2,34.1 11.2,33.5 10.1,34.1 10.4,32.9 9.4,32 10.6,31.8 	"/>
</g>
</svg>
